<svg version="1" xmlns="http://www.w3.org/2000/svg" width="402.667" height="402.667" viewBox="0 0 302.000000 302.000000"><path d="M133.5 1.2c-25.8 2.8-53.2 13.9-74 29.7-7.7 5.9-22.7 20.9-28.6 28.6C8.5 88.9-2.6 127.5.9 164c2.1 23.2 8.8 44.6 19.8 63 7.6 12.7 13 19.8 23.8 30.5 20.2 20.2 42 32.7 69.2 39.6 44.5 11.3 92.6 1.6 128.8-26 7.7-5.9 22.7-20.9 28.6-28.6 17-22.3 27.3-49.3 30-78.5 3.5-36.5-7.6-75.1-30-104.5-5.9-7.7-20.9-22.7-28.6-28.6-30.6-23.3-70.2-34.1-109-29.7zm-3.8 47.3C141.2 71.3 150.7 90 151 90c.3 0 9.7-18.5 21-41.1s20.8-41.2 21.1-41.5c.9-.5 15.9 5.1 23.2 8.7 25.2 12.6 46.8 31.9 61.9 55.5 16.5 25.7 24.9 60.9 22 92.2-3.4 36.3-16.9 65.7-42.1 91.5-25.9 26.7-56.8 41.3-94.3 44.9-44.5 4.1-88.1-12.2-119.9-44.9-12.3-12.6-19.5-22.6-26.8-37.2-25.4-50.3-20-111.3 13.7-156.6 9.5-12.7 26.7-28.6 40.8-37.7 8.2-5.3 32.4-16.3 36.7-16.7.4-.1 10 18.6 21.4 41.4z"/><path d="M227.9 83.3c-9.9 6.6-16.8 28.7-16.9 53.6v12.4l-5.2 5.2c-5.8 5.8-11.7 8.2-16.1 6.6-2.8-1.1-3.7-2.9-3.7-7.6 0-2.7.6-3.7 3.5-5.5 5.8-3.6 12.5-13.4 12.5-18.3 0-1.3-.8-3.1-1.8-4-6.3-5.7-17.4 4.8-21.2 20-1.3 5.3-12.3 17.3-15.7 17.3-3.3 0-5.4-4.1-6.6-12.9-1-7.8-1-7.8 2-12.2 3.6-5.2 7.1-11.9 8.8-16.8 1.1-3.3 1.7-3.7 7.6-5.1 4.3-1 6.4-2 6.4-3 0-1.2-1.2-1.4-5.7-1.2l-5.6.3.9-3.8c.5-2.1.9-7 .9-10.9 0-5.8-.4-7.4-1.9-8.8-5.3-4.8-12.1 3.8-19.4 24.6-.4 1-1.2 1.8-2 1.8-.7 0-1.8.5-2.5 1.2-1.6 1.6.4 5.2 2.5 4.4 1.2-.5 1.4-.1.9 1.6-.3 1.3-.9 7.6-1.3 14.1-.6 10.9-.8 12-3.6 15.7-3.2 4.4-9.3 8.4-14.4 9.5-7.1 1.5-11.8-9.6-5.5-12.9 3.4-1.7 9.5-8.3 11.6-12.5 3.4-6.4 1.2-12.1-4.5-12.1-9 0-20 21.5-16.9 33 2.5 9.5 10.5 11.6 21.8 6 3.3-1.7 7.5-4.7 9.2-6.7 1.7-1.9 3.2-3.4 3.4-3.2.2.2.9 2.6 1.6 5.2 1.5 5.6 5.8 10.7 9 10.7 3.7 0 8.7-3 13.4-8l4.6-4.9 1.4 3.3c1.9 4.6 5.2 6.6 10.6 6.6 5.9-.1 12.5-3.1 17.7-8.2 3-3 4.4-3.7 4.7-2.7.2.8 1 3.1 1.6 5.1 1.3 4.3 6.1 8.8 9.3 8.8 5.1 0 12.8-6.4 18.9-15.7 3.2-5.1 3.8-6.7 2.9-7.6-1-.9-1.6-.7-2.9 1.1-8.7 11.9-13.3 16.2-17.5 16.2-2.7 0-5.7-7.4-5.7-14.4 0-5.1.5-6.7 3.9-12 8.2-13 14-29.8 14.8-42.7.5-7.9.4-8.8-1.6-10.8-2.7-2.7-4-2.6-8.2.2zm5.8 9.4c-.3 3.8-1.9 10.6-3.5 15.3-2.9 8.3-10.7 25-11.8 25-.9 0 .7-12 2.7-21 3.9-17.1 7.9-26 11.6-26 1.4 0 1.5 1 1 6.7zm-65.2 5.8c-.4 2.2-1.3 6.3-2.2 9.1-1.3 4.5-1.9 5.3-4.6 5.8-1.6.3-3.3.4-3.6.1-.9-1 4.9-17.1 7-19.4 2.8-3 4.1-1.2 3.4 4.4zm-5 21.7c-.4 1.3-2.1 5-3.9 8.3l-3.1 6-.3-4.5c-.5-7 .5-10.8 3.1-11.3 4.6-.9 4.9-.8 4.2 1.5zM134 130.6c0 2.9-3 8-7 11.9-2.2 2.2-4 3.6-4 3.2 0-1.7 3.4-10.5 5.2-13.5 2.1-3.4 5.8-4.4 5.8-1.6zm63 1.2c0 1.5-.7 3.9-1.7 5.2-2.3 3.5-6.5 8-7.5 8-1.7 0 2.4-10.9 5.4-14.8 1.8-2.2 3.8-1.4 3.8 1.6zM76.2 88.5c-1.2.9-2.8 3.7-3.5 6.3-1.2 4.1-1.8 4.7-4.3 5-9.6.8-11.4 1.3-11.4 3.2 0 1.7.5 1.9 4.8 1.4 2.6-.3 5.5-.7 6.6-.9 1.6-.3 1.8.1 1.2 3.3-2.9 17.4-6.8 47.2-6.9 53.7-.2 8-.2 8 2.5 8.3 1.6.2 3.3-.4 4.5-1.6 1-1 5-2.5 9.3-3.4 12.1-2.6 18.7-5.5 24.1-10.7 4.3-4.1 4.9-5.2 4.9-8.8 0-2.6-.8-5-2.1-6.7-2.3-2.9-9.1-6.7-15.7-8.7l-4.3-1.2 7.3-3.9c9.4-4.9 15-10.7 14.6-15-.5-5.5-4.7-7.3-22.2-9.4l-4.8-.6.6-3.6c.3-2 .9-4.7 1.2-6 .5-1.8.2-2.2-1.8-2.2-1.3 0-3.3.7-4.6 1.5zM96.1 105c2 .6 4.4 1.9 5.4 3 1.8 2 1.8 2.1-.1 4.8-2.3 3.1-14.2 9.4-20.9 10.9-2.5.6-4.5.7-4.5.4 0-.8 2.8-15.9 3.5-19 .6-2.3.8-2.3 6.8-1.7 3.4.4 7.8 1.1 9.8 1.6zm-12.6 26.4c12.3 3.3 18.5 7.7 18.5 13.1 0 3.6-1.6 5.3-8 8.5-4.5 2.3-16.9 6-20.2 6-2.6 0-2.4-6.8.7-25.8.7-3.7 1.5-3.8 9-1.8zM118.2 188c-10.2 2.1-15.2 7.8-15.2 17.2 0 6.9 1.9 11.1 6.1 13.7 2.9 1.8 2.9 2 1.1 2.5-6.4 2.1-10.4 8.4-10.5 16.5 0 8.9 4.2 14.9 13.8 19.3 6.8 3.1 25.1 3.3 33.4.4l5.4-1.9 1.9 2.7c2.1 2.7 3.4 3.1 5.6 1.7 1-.6 1.1-1.7.4-4.7-.6-2.1-1.3-7.9-1.6-12.8l-.6-8.9 6.7.6c3.8.3 7.5.7 8.3.9.9.2 1.5-.5 1.5-1.7 0-3.5-4.9-4.9-18.6-5.3-12.5-.4-12.6-.4-13.2 2-1 3.7-.9 3.8 4.3 3.8h5v15.9l-5.7 1.8c-3.9 1.2-9.1 1.8-15.8 1.8-8.8 0-10.7-.3-14.9-2.5-6.7-3.4-9.1-6.9-9-13 .1-9.1 4.9-12.7 18.1-13.7 4-.3 7.3-.9 7.3-1.4 0-.4.3-1.4.6-2.3.5-1.3-.2-1.6-3.4-1.6-7.5 0-13.7-1.9-16.8-5.1-2.5-2.6-2.9-3.8-2.9-8.5 0-5 .3-5.9 3.2-8.4 4.1-3.7 13.5-4.9 23.2-2.9l6.6 1.4.3 5.2c.3 5.1.4 5.3 3.3 5.3h2.9v-14.8l-6.7-1.7c-8.4-2.1-18.4-2.7-24.1-1.5zM70 191c0 2.9.1 3 5.1 3h5.1l-.4 24.7c-.4 27.4-1.1 30.9-6.9 33.8-3.6 1.9-11.2 1.9-14.8 0-2.7-1.3-2.9-1.3-4 1.1-1.5 3.4-1.5 3.3 2.4 5 7.5 3.1 19.1 1.2 24-4.1 5-5.3 5.5-8.6 5.5-38.9V188H70v3zM203.2 190.7c.2 2 .9 2.9 2.5 3.1 2 .3 1.7 1.5-7.6 29.5l-9.8 29.2-4.1.3c-3.9.3-4.2.5-4.2 3.3v2.9h13.6l3.3-10 3.2-10h29.6l3.4 10 3.4 10H250v-2.9c0-2.8-.3-3-4.2-3.3l-4.1-.3-10.7-32-10.7-32-8.7-.3-8.7-.3.3 2.8zm18.4 23l6 18.8-12.4.3c-6.9.1-12.6.1-12.8 0-.4-.5 12-37.8 12.6-37.8.4 0 3.3 8.4 6.6 18.7z"/></svg>